# xmcd CD database file
#
# Track frame offsets:
#	183
#	12915
#	25445
#	38088
#	51060
#	65283
#	77885
#	91463
#	103690
#	115368
#	128253
#	139160
#	152800
#	165730
#	179415
#	193385
#	205905
#
# Disc length: 2924 seconds
#
# Revision: 0
# Processed by: cddbd v1.4PL0 Copyright (c) Steve Scherf et al.
# Submitted via: CDex 1.50
#
DISCID=e90b6a11
DTITLE=Sonny Boy Williamson - Jazz Tribune CD2
DYEAR=1973
DGENRE=Blues
TTITLE0=Good Gravy
TTITLE1=Good Gal Blues
TTITLE2=I'm Not Pleasing You
TTITLE3=Tell Me, Baby
TTITLE4=Honey Bee Blues
TTITLE5=I'm Gonna Catch Your Soon
TTITLE6=Blues That Made Me Drunk
TTITLE7=Elevator Woman
TTITLE8=Mellow Chick Woman
TTITLE9=Lacey Belle
TTITLE10=Apple Tree Swing
TTITLE11=Sugar Gal
TTITLE12=No Friend Blues
TTITLE13=I Love You For Myself
TTITLE14=Bring Another Half a Pint
TTITLE15=Southern Dream
TTITLE16=Better Cut That Out
EXTD=YEAR: 1973
EXTT0=
EXTT1=
EXTT2=
EXTT3=
EXTT4=
EXTT5=
EXTT6=
EXTT7=
EXTT8=
EXTT9=
EXTT10=
EXTT11=
EXTT12=
EXTT13=
EXTT14=
EXTT15=
EXTT16=
PLAYORDER=
